<svg width="21" height="21" viewBox="0 0 21 21" fill="none" xmlns="http://www.w3.org/2000/svg">
<g id="SVG" clip-path="url(#clip0_10_1365)">
<path id="Vector" d="M16.3958 8.30994C16.3958 10.1029 15.8137 11.7592 14.8333 13.1029L19.7786 18.0521C20.2668 18.5404 20.2668 19.3334 19.7786 19.8217C19.2903 20.3099 18.4973 20.3099 18.009 19.8217L13.0637 14.8724C11.72 15.8568 10.0637 16.4349 8.27075 16.4349C3.78247 16.4349 0.145752 12.7982 0.145752 8.30994C0.145752 3.82166 3.78247 0.184937 8.27075 0.184937C12.759 0.184937 16.3958 3.82166 16.3958 8.30994ZM8.27075 13.9349C9.00944 13.9349 9.74089 13.7894 10.4233 13.5068C11.1058 13.2241 11.7259 12.8097 12.2482 12.2874C12.7706 11.7651 13.1849 11.145 13.4676 10.4625C13.7503 9.78007 13.8958 9.04862 13.8958 8.30994C13.8958 7.57125 13.7503 6.8398 13.4676 6.15734C13.1849 5.47489 12.7706 4.85479 12.2482 4.33246C11.7259 3.81013 11.1058 3.3958 10.4233 3.11311C9.74089 2.83043 9.00944 2.68494 8.27075 2.68494C7.53207 2.68494 6.80061 2.83043 6.11816 3.11311C5.4357 3.3958 4.81561 3.81013 4.29328 4.33246C3.77095 4.85479 3.35661 5.47489 3.07393 6.15734C2.79125 6.8398 2.64575 7.57125 2.64575 8.30994C2.64575 9.04862 2.79125 9.78007 3.07393 10.4625C3.35661 11.145 3.77095 11.7651 4.29328 12.2874C4.81561 12.8097 5.4357 13.2241 6.11816 13.5068C6.80061 13.7894 7.53207 13.9349 8.27075 13.9349Z" fill="white"/>
</g>
<defs>
<clipPath id="clip0_10_1365">
<rect width="20" height="20" fill="white" transform="translate(0.145752 0.184937)"/>
</clipPath>
</defs>
</svg>
