<svg width="141" height="49" viewBox="0 0 141 49" fill="none" xmlns="http://www.w3.org/2000/svg">
<g clip-path="url(#clip0_10_1486)">
<path d="M125.482 23.9885C125.493 23.7527 125.552 23.5217 125.655 23.3097C125.759 23.0977 125.905 22.9092 126.084 22.7559C126.263 22.6026 126.472 22.4877 126.698 22.4184C126.923 22.3491 127.161 22.3269 127.395 22.353C128.418 22.353 129 22.8243 129 23.642C129 24.3812 128.37 24.7901 127.395 25.214L125.482 26.0318V23.9885ZM127.211 29.8535C127.712 29.8884 128.214 29.7871 128.662 29.5601C129.111 29.3332 129.489 28.9891 129.758 28.5645C129.84 28.4513 129.874 28.3106 129.854 28.1725C129.833 28.0344 129.759 27.9098 129.648 27.8253C129.594 27.7869 129.532 27.7597 129.467 27.7452C129.402 27.7308 129.335 27.7294 129.269 27.7411C129.204 27.7528 129.141 27.7774 129.085 27.8134C129.029 27.8495 128.981 27.8963 128.943 27.9512C128.761 28.2425 128.506 28.4804 128.202 28.6407C127.898 28.801 127.557 28.8779 127.214 28.8636C126.987 28.8977 126.756 28.8798 126.537 28.8112C126.318 28.7425 126.118 28.6249 125.951 28.4673C125.784 28.3097 125.656 28.1162 125.575 27.9015C125.494 27.6868 125.463 27.4565 125.485 27.2281V27.0861L127.734 26.1274C129.463 25.3882 130.108 24.9008 130.108 23.5484C130.108 22.212 129.055 21.3631 127.389 21.3631C127.02 21.3291 126.647 21.3712 126.294 21.4866C125.941 21.602 125.615 21.7884 125.337 22.0342C125.058 22.2801 124.833 22.5803 124.675 22.9164C124.517 23.2524 124.429 23.6173 124.418 23.9885V27.2271C124.404 27.59 124.468 27.9517 124.605 28.2878C124.743 28.6239 124.951 28.9265 125.216 29.1754C125.48 29.4243 125.795 29.6136 126.139 29.7305C126.483 29.8475 126.848 29.8894 127.209 29.8535H127.211ZM122.679 21.4416C122.309 21.4359 121.942 21.5081 121.601 21.6535C121.261 21.7988 120.955 22.0141 120.703 22.2853C120.451 22.5566 120.259 22.8778 120.139 23.2281C120.019 23.5784 119.974 23.95 120.007 24.3188V29.2402C120.007 29.382 120.063 29.518 120.163 29.6183C120.264 29.7186 120.4 29.7749 120.541 29.7749C120.683 29.7749 120.819 29.7186 120.92 29.6183C121.02 29.518 121.076 29.382 121.076 29.2402V24.3188C121.044 24.0883 121.062 23.8536 121.129 23.6307C121.196 23.4078 121.31 23.2019 121.464 23.0272C121.617 22.8525 121.807 22.7131 122.02 22.6185C122.232 22.5238 122.463 22.4762 122.695 22.4789C122.869 22.4789 123.136 22.5413 123.278 22.5413C123.345 22.545 123.412 22.5344 123.474 22.5104C123.537 22.4864 123.594 22.4494 123.642 22.4019C123.689 22.3544 123.726 22.2975 123.75 22.2347C123.774 22.172 123.785 22.1049 123.781 22.0378C123.781 21.9134 123.736 21.793 123.656 21.6981C123.575 21.6032 123.464 21.5399 123.341 21.5192C123.126 21.4626 122.904 21.4365 122.681 21.4416H122.679ZM113.674 27.5735C113.674 26.8344 114.304 26.4255 115.278 26.0015L117.191 25.1838V27.2281C117.18 27.4638 117.121 27.6948 117.018 27.9068C116.914 28.1189 116.768 28.3074 116.589 28.4607C116.41 28.614 116.201 28.7288 115.975 28.7981C115.75 28.8674 115.512 28.8897 115.278 28.8636C114.257 28.8625 113.675 28.3912 113.675 27.5735H113.674ZM115.467 21.3631C114.966 21.3281 114.464 21.4295 114.016 21.6564C113.567 21.8834 113.189 22.2274 112.92 22.6521C112.838 22.7653 112.804 22.9059 112.824 23.0441C112.845 23.1822 112.919 23.3068 113.03 23.3913C113.084 23.4297 113.146 23.4569 113.211 23.4713C113.276 23.4858 113.343 23.4872 113.409 23.4755C113.474 23.4638 113.537 23.4392 113.593 23.4031C113.649 23.3671 113.697 23.3203 113.735 23.2654C113.917 22.9739 114.173 22.7359 114.477 22.5756C114.781 22.4153 115.122 22.3385 115.465 22.353C115.692 22.3188 115.923 22.3367 116.142 22.4054C116.361 22.4741 116.561 22.5916 116.728 22.7493C116.895 22.9069 117.023 23.1004 117.104 23.3151C117.185 23.5298 117.216 23.7601 117.194 23.9885V24.1305L114.945 25.0892C113.216 25.8283 112.571 26.3157 112.571 27.6682C112.571 29.0045 113.624 29.8535 115.29 29.8535C115.66 29.8874 116.032 29.8454 116.385 29.73C116.738 29.6146 117.064 29.4282 117.342 29.1823C117.621 28.9365 117.846 28.6363 118.004 28.3002C118.162 27.9641 118.25 27.5993 118.261 27.2281V23.9895C118.275 23.6264 118.211 23.2645 118.073 22.9283C117.936 22.592 117.727 22.2892 117.463 22.0403C117.198 21.7914 116.883 21.6022 116.539 21.4854C116.195 21.3685 115.83 21.3269 115.468 21.3631H115.467ZM105.766 26.1586V22.5423C105.753 22.1985 105.81 21.8556 105.931 21.5338C106.053 21.212 106.238 20.9179 106.476 20.6688C106.713 20.4197 106.998 20.2206 107.313 20.0834C107.629 19.9461 107.969 19.8735 108.313 19.8697C108.793 19.8423 109.27 19.9557 109.686 20.196C110.102 20.4363 110.439 20.7929 110.655 21.2221C110.716 21.345 110.823 21.4387 110.953 21.4829C111.082 21.5271 111.224 21.518 111.347 21.4578C111.466 21.3972 111.556 21.2921 111.597 21.1655C111.638 21.0388 111.628 20.9009 111.568 20.782C111.276 20.1746 110.812 19.6668 110.233 19.3226C109.654 18.9784 108.986 18.8131 108.313 18.8475C107.828 18.8423 107.346 18.9345 106.898 19.1188C106.449 19.303 106.041 19.5755 105.7 19.9201C105.358 20.2646 105.089 20.6742 104.909 21.1247C104.728 21.5751 104.64 22.0572 104.649 22.5423V26.1586C104.64 26.6438 104.728 27.1258 104.909 27.5763C105.089 28.0267 105.358 28.4364 105.7 28.7809C106.041 29.1255 106.449 29.398 106.898 29.5822C107.346 29.7664 107.828 29.8587 108.313 29.8535C108.986 29.888 109.654 29.7229 110.233 29.3788C110.812 29.0348 111.276 28.5272 111.568 27.92C111.628 27.8011 111.638 27.6632 111.597 27.5365C111.556 27.4099 111.466 27.3048 111.347 27.2442C111.224 27.184 111.082 27.1749 110.953 27.2191C110.823 27.2633 110.716 27.357 110.655 27.4799C110.439 27.9091 110.102 28.2657 109.686 28.506C109.27 28.7463 108.793 28.8597 108.313 28.8323C107.969 28.8284 107.629 28.7556 107.314 28.6182C106.998 28.4809 106.713 28.2817 106.476 28.0325C106.239 27.7833 106.054 27.4891 105.932 27.1673C105.81 26.8454 105.753 26.5025 105.766 26.1586ZM97.1126 29.3207C97.1266 29.4505 97.1899 29.57 97.2894 29.6545C97.3889 29.739 97.517 29.7821 97.6474 29.7749C97.7181 29.7769 97.7885 29.7644 97.8543 29.7382C97.92 29.712 97.9798 29.6727 98.0298 29.6226C98.0799 29.5726 98.1192 29.5129 98.1454 29.4471C98.1715 29.3813 98.184 29.3109 98.1821 29.2402V24.3369C98.1821 23.8324 98.3825 23.3485 98.7393 22.9918C99.096 22.635 99.5799 22.4346 100.084 22.4346C100.589 22.4346 101.073 22.635 101.43 22.9918C101.786 23.3485 101.987 23.8324 101.987 24.3369V29.2402C101.987 29.382 102.043 29.518 102.143 29.6183C102.244 29.7186 102.38 29.7749 102.521 29.7749C102.663 29.7749 102.799 29.7186 102.9 29.6183C103 29.518 103.056 29.382 103.056 29.2402V24.3369C103.064 23.578 102.771 22.8469 102.24 22.3043C101.71 21.7617 100.985 21.4522 100.226 21.4437C99.8424 21.4451 99.4629 21.5254 99.1112 21.6796C98.7596 21.8338 98.4433 22.0585 98.1821 22.3399V19.4608C98.184 19.3901 98.1715 19.3197 98.1454 19.2539C98.1192 19.1881 98.0799 19.1284 98.0298 19.0784C97.9798 19.0283 97.92 18.989 97.8543 18.9628C97.7885 18.9366 97.7181 18.9241 97.6474 18.9261C97.5703 18.9268 97.4943 18.9439 97.4244 18.9762C97.3545 19.0085 97.2922 19.0553 97.2416 19.1135C97.1911 19.1716 97.1535 19.2398 97.1312 19.3136C97.109 19.3873 97.1027 19.465 97.1126 19.5414V29.3207ZM93.6222 21.5202V19.4608C93.6222 19.319 93.5659 19.183 93.4656 19.0827C93.3653 18.9824 93.2293 18.9261 93.0875 18.9261C92.9457 18.9261 92.8097 18.9824 92.7094 19.0827C92.6091 19.183 92.5527 19.319 92.5527 19.4608V21.5202H91.2436C91.1122 21.5202 90.9862 21.5724 90.8932 21.6653C90.8003 21.7582 90.7481 21.8843 90.7481 22.0157C90.7481 22.1471 90.8003 22.2731 90.8932 22.366C90.9862 22.4589 91.1122 22.5111 91.2436 22.5111H92.5527V26.8978C92.5373 27.6595 92.8066 28.3997 93.308 28.9733C93.5689 29.2492 93.8873 29.4643 94.2405 29.6036C94.5938 29.7428 94.9734 29.8027 95.3523 29.7789C95.4254 29.7821 95.4983 29.77 95.5664 29.7435C95.6345 29.717 95.6964 29.6766 95.7481 29.6249C95.7998 29.5732 95.8402 29.5113 95.8667 29.4432C95.8932 29.375 95.9053 29.3021 95.9022 29.2291C95.8981 29.163 95.881 29.0984 95.8519 29.0389C95.8228 28.9795 95.7822 28.9263 95.7325 28.8826C95.6829 28.8388 95.6251 28.8052 95.5624 28.7838C95.4998 28.7624 95.4335 28.7536 95.3674 28.7578C95.1249 28.7724 94.882 28.7336 94.6562 28.6439C94.4303 28.5543 94.2269 28.416 94.0604 28.2391C93.8939 28.0621 93.7683 27.8506 93.6926 27.6197C93.6169 27.3888 93.5928 27.1441 93.6222 26.9028V22.5121H95.4147C95.5462 22.5121 95.6722 22.4599 95.7651 22.367C95.858 22.2741 95.9102 22.1481 95.9102 22.0167C95.9102 21.8853 95.858 21.7592 95.7651 21.6663C95.6722 21.5734 95.5462 21.5212 95.4147 21.5212L93.6222 21.5202ZM91.1046 29.3661C91.1088 29.2311 91.0603 29.0997 90.9693 28.9999C90.8783 28.9001 90.752 28.8396 90.6172 28.8313C90.4697 28.827 90.3249 28.7916 90.192 28.7274C90.0592 28.6632 89.9414 28.5717 89.8463 28.4589C89.7513 28.3461 89.6811 28.2144 89.6404 28.0726C89.5997 27.9308 89.5894 27.782 89.6102 27.636V19.4598C89.6102 19.318 89.5538 19.182 89.4535 19.0817C89.3533 18.9814 89.2172 18.9251 89.0754 18.9251C88.9336 18.9251 88.7976 18.9814 88.6973 19.0817C88.597 19.182 88.5407 19.318 88.5407 19.4598V27.636C88.5232 28.1755 88.6957 28.7041 89.0281 29.1294C89.2083 29.3604 89.44 29.546 89.7048 29.6716C89.9695 29.7971 90.2599 29.8591 90.5527 29.8525C90.6905 29.8602 90.8258 29.8136 90.9296 29.7227C91.0334 29.6317 91.0973 29.5037 91.1076 29.3661H91.1046ZM82.1127 27.5735C82.1127 26.8344 82.7411 26.4255 83.716 26.0015L85.6293 25.1838V27.2281C85.6187 27.4638 85.5597 27.6948 85.4561 27.9068C85.3526 28.1189 85.2066 28.3074 85.0272 28.4607C84.8479 28.614 84.6389 28.7288 84.4134 28.7981C84.1878 28.8674 83.9505 28.8897 83.716 28.8636C82.6978 28.8625 82.1168 28.3912 82.1168 27.5735H82.1127ZM83.9053 21.3631C83.404 21.3281 82.9025 21.4295 82.4541 21.6564C82.0058 21.8834 81.6272 22.2274 81.3585 22.6521C81.2766 22.7653 81.2423 22.9059 81.2628 23.0441C81.2833 23.1822 81.3571 23.3068 81.4682 23.3913C81.5227 23.4297 81.5842 23.4569 81.6492 23.4713C81.7142 23.4858 81.7814 23.4872 81.847 23.4755C81.9126 23.4638 81.9751 23.4392 82.0311 23.4031C82.0871 23.3671 82.1354 23.3203 82.1732 23.2654C82.355 22.9741 82.6108 22.7361 82.9146 22.5758C83.2183 22.4156 83.5591 22.3387 83.9023 22.353C84.1292 22.3187 84.3609 22.3364 84.5799 22.405C84.7989 22.4736 84.9994 22.5912 85.1662 22.7488C85.3329 22.9065 85.4616 23.1 85.5424 23.3148C85.6231 23.5296 85.6539 23.76 85.6324 23.9885V24.1305L83.3836 25.0892C81.6545 25.8283 81.009 26.3157 81.009 27.6682C81.009 29.0045 82.0624 29.8535 83.728 29.8535C84.0979 29.8874 84.4707 29.8454 84.8237 29.73C85.1767 29.6146 85.5024 29.4282 85.7807 29.1823C86.059 28.9365 86.2841 28.6363 86.4422 28.3002C86.6003 27.9641 86.6879 27.5993 86.6998 27.2281V23.9895C86.7137 23.6265 86.6496 23.2649 86.5119 22.9288C86.3743 22.5927 86.1661 22.29 85.9016 22.0412C85.6371 21.7923 85.3223 21.603 84.9785 21.486C84.6346 21.3691 84.2697 21.3272 83.9083 21.3631H83.9053ZM75.289 23.9885C75.2997 23.7527 75.3587 23.5217 75.4622 23.3097C75.5658 23.0977 75.7118 22.9092 75.8911 22.7559C76.0705 22.6026 76.2794 22.4877 76.505 22.4184C76.7305 22.3491 76.9679 22.3269 77.2024 22.353C78.2246 22.353 78.8066 22.8243 78.8066 23.642C78.8066 24.3812 78.1782 24.7901 77.2024 25.214L75.289 26.0318V23.9885ZM77.0191 29.8535C77.5205 29.8884 78.0219 29.7871 78.4703 29.5601C78.9187 29.3332 79.2973 28.9891 79.5659 28.5645C79.6478 28.4513 79.6821 28.3106 79.6616 28.1725C79.6411 28.0344 79.5674 27.9098 79.4562 27.8253C79.4017 27.7869 79.3402 27.7597 79.2752 27.7452C79.2102 27.7308 79.143 27.7294 79.0774 27.7411C79.0119 27.7528 78.9493 27.7774 78.8933 27.8134C78.8373 27.8495 78.789 27.8963 78.7512 27.9512C78.5694 28.2425 78.3136 28.4804 78.0098 28.6407C77.7061 28.801 77.3653 28.8779 77.0222 28.8636C76.7953 28.8979 76.5635 28.8801 76.3445 28.8116C76.1255 28.743 75.925 28.6254 75.7583 28.4678C75.5915 28.3101 75.4628 28.1165 75.3821 27.9017C75.3013 27.687 75.2705 27.4566 75.2921 27.2281V27.0861L77.5408 26.1274C79.2699 25.3882 79.9154 24.9008 79.9154 23.5484C79.9154 22.212 78.862 21.3631 77.1964 21.3631C76.8265 21.3291 76.4537 21.3712 76.1007 21.4866C75.7477 21.602 75.422 21.7884 75.1437 22.0342C74.8654 22.2801 74.6403 22.5803 74.4822 22.9164C74.3242 23.2524 74.2365 23.6173 74.2246 23.9885V27.2271C74.2106 27.5906 74.2748 27.9528 74.4129 28.2894C74.5509 28.6259 74.7596 28.9289 75.0248 29.1779C75.29 29.4269 75.6055 29.616 75.9501 29.7326C76.2947 29.8491 76.6603 29.8903 77.0222 29.8535H77.0191ZM72.3354 29.209V19.491C72.3354 19.3409 72.2758 19.197 72.1696 19.0908C72.0635 18.9847 71.9195 18.9251 71.7694 18.9251C71.6193 18.9251 71.4754 18.9847 71.3692 19.0908C71.2631 19.197 71.2035 19.3409 71.2035 19.491V23.6894H66.2408V19.491C66.245 19.4156 66.2333 19.3401 66.2063 19.2695C66.1794 19.1989 66.1378 19.1348 66.0844 19.0814C66.031 19.028 65.9669 18.9865 65.8963 18.9595C65.8257 18.9326 65.7502 18.9208 65.6748 18.9251C65.5997 18.9221 65.5248 18.9347 65.4548 18.9621C65.3847 18.9895 65.3212 19.031 65.268 19.0842C65.2149 19.1374 65.1733 19.2009 65.1459 19.271C65.1185 19.341 65.1059 19.4159 65.1089 19.491V29.208C65.1072 29.2827 65.1207 29.3571 65.1486 29.4265C65.1764 29.4959 65.2181 29.5589 65.2709 29.6118C65.3238 29.6647 65.3869 29.7063 65.4563 29.7342C65.5257 29.762 65.6 29.7756 65.6748 29.7739C65.7502 29.7781 65.8257 29.7664 65.8963 29.7395C65.9669 29.7125 66.031 29.671 66.0844 29.6175C66.1378 29.5641 66.1794 29.5 66.2063 29.4294C66.2333 29.3589 66.245 29.2834 66.2408 29.208V24.6763H71.2025V29.208C71.2025 29.3581 71.2621 29.502 71.3682 29.6082C71.4744 29.7143 71.6183 29.7739 71.7684 29.7739C71.9185 29.7739 72.0625 29.7143 72.1686 29.6082C72.2747 29.502 72.3344 29.3581 72.3344 29.208L72.3354 29.209ZM60.3838 29.6964C60.5152 29.6964 60.6413 29.6442 60.7342 29.5513C60.8271 29.4583 60.8793 29.3323 60.8793 29.2009C60.8793 29.0695 60.8271 28.9435 60.7342 28.8506C60.6413 28.7576 60.5152 28.7054 60.3838 28.7054H55.7685V24.6773H60.0062C60.1376 24.6773 60.2636 24.6251 60.3565 24.5322C60.4495 24.4392 60.5017 24.3132 60.5017 24.1818C60.5017 24.0504 60.4495 23.9244 60.3565 23.8315C60.2636 23.7385 60.1376 23.6863 60.0062 23.6863H55.7685V19.9945H60.3838C60.5152 19.9945 60.6413 19.9423 60.7342 19.8494C60.8271 19.7565 60.8793 19.6305 60.8793 19.4991C60.8793 19.3677 60.8271 19.2416 60.7342 19.1487C60.6413 19.0558 60.5152 19.0036 60.3838 19.0036H55.2187C55.1456 19.0005 55.0727 19.0125 55.0045 19.0391C54.9363 19.0656 54.8744 19.1059 54.8226 19.1576C54.7708 19.2093 54.7304 19.2712 54.7037 19.3393C54.6771 19.4074 54.6649 19.4804 54.6679 19.5534V29.1445C54.6649 29.2176 54.6771 29.2905 54.7037 29.3587C54.7304 29.4268 54.7708 29.4886 54.8226 29.5403C54.8744 29.592 54.9363 29.6324 55.0045 29.6589C55.0727 29.6854 55.1456 29.6975 55.2187 29.6944L60.3838 29.6964ZM52.7031 26.1586V24.4608C52.7062 24.3877 52.6942 24.3147 52.6677 24.2466C52.6411 24.1784 52.6008 24.1164 52.5491 24.0647C52.4974 24.0129 52.4355 23.9724 52.3674 23.9458C52.2993 23.9191 52.2264 23.9069 52.1533 23.9099H49.1815C49.0501 23.9099 48.9241 23.9621 48.8312 24.055C48.7382 24.1479 48.686 24.274 48.686 24.4054C48.686 24.5368 48.7382 24.6628 48.8312 24.7557C48.9241 24.8486 49.0501 24.9008 49.1815 24.9008H51.5984V26.1586C51.6185 26.8439 51.367 27.5094 50.8986 28.01C50.4303 28.5106 49.783 28.8058 49.0979 28.8313C48.7583 28.8222 48.4239 28.7454 48.1142 28.6055C47.8046 28.4656 47.526 28.2654 47.2947 28.0165C47.0634 27.7676 46.884 27.4752 46.767 27.1562C46.6501 26.8372 46.5979 26.498 46.6135 26.1586V22.5423C46.5944 22.2047 46.6432 21.8666 46.7569 21.5481C46.8707 21.2296 47.0471 20.9372 47.2758 20.688C47.5045 20.4389 47.7808 20.2381 48.0884 20.0975C48.396 19.957 48.7286 19.8795 49.0667 19.8697C49.5353 19.8469 50.0002 19.9632 50.403 20.2038C50.8058 20.4444 51.1284 20.7987 51.3305 21.2221C51.3912 21.345 51.4981 21.4387 51.6277 21.4829C51.7574 21.5271 51.8993 21.518 52.0224 21.4578C52.141 21.3972 52.2309 21.2921 52.2722 21.1655C52.3136 21.0388 52.303 20.9009 52.2429 20.782C51.9656 20.1805 51.5154 19.6752 50.9497 19.3307C50.384 18.9861 49.7284 18.8179 49.0667 18.8475C48.5875 18.8482 48.1134 18.9452 47.6724 19.1327C47.2314 19.3202 46.8326 19.5944 46.4997 19.9391C46.1668 20.2837 45.9066 20.6918 45.7344 21.139C45.5623 21.5862 45.4818 22.0634 45.4977 22.5423V26.1586C45.4854 26.6393 45.5694 27.1176 45.7448 27.5654C45.9202 28.0131 46.1835 28.4212 46.5191 28.7655C46.8547 29.1099 47.2559 29.3835 47.699 29.5704C48.1421 29.7572 48.6181 29.8535 49.0989 29.8535C50.0638 29.8311 50.9815 29.4319 51.6557 28.7413C52.3299 28.0508 52.7069 27.1237 52.7061 26.1586H52.7031ZM27.66 20.915C27.66 19.4165 28.6741 17.9593 29.229 18.2362C29.8594 18.5525 28.7567 19.9643 27.66 20.915ZM20.7517 21.4628C20.7517 20.2544 21.942 17.9633 22.6701 18.206C23.5332 18.492 21.9582 20.8002 20.7547 21.4628H20.7517ZM19.5433 30.0881C19.4208 30.101 19.2971 30.0864 19.1809 30.0455C19.0648 30.0045 18.9593 29.9383 18.8719 29.8515C18.7846 29.7648 18.7176 29.6597 18.6759 29.5438C18.6343 29.428 18.6189 29.3043 18.6309 29.1818C18.6309 27.6108 20.8091 26.1113 22.4577 25.3057C22.1676 27.495 21.4275 30.0025 19.5493 30.0891L19.5433 30.0881ZM29.5935 24.9713C29.317 24.9585 29.0407 25.0005 28.7805 25.095C28.5203 25.1894 28.2814 25.3344 28.0775 25.5217C27.8736 25.7089 27.7088 25.9346 27.5926 26.1858C27.4763 26.4371 27.4109 26.7088 27.4002 26.9854C27.4002 27.8998 27.948 28.6299 28.6791 28.6299C28.7447 28.6359 28.8108 28.6279 28.8731 28.6066C28.9353 28.5853 28.9924 28.5512 29.0406 28.5063C29.0888 28.4615 29.127 28.4069 29.1527 28.3463C29.1784 28.2857 29.191 28.2204 29.1897 28.1546C29.1897 27.6803 28.5603 27.5645 28.6097 26.8535C28.6364 26.6338 28.7441 26.432 28.9117 26.2875C29.0793 26.143 29.2948 26.0661 29.516 26.072C30.3931 26.072 30.803 26.922 30.803 27.7991C30.8093 28.0942 30.7573 28.3877 30.6501 28.6628C30.5429 28.9378 30.3826 29.1891 30.1782 29.4021C29.9739 29.6152 29.7295 29.7859 29.4592 29.9044C29.1888 30.023 28.8978 30.0871 28.6026 30.0931C28.2377 30.0602 27.8829 29.9554 27.5586 29.7849C27.2344 29.6143 26.947 29.3814 26.713 29.0994C26.4791 28.8175 26.3031 28.492 26.1954 28.1419C26.0876 27.7917 26.0501 27.4236 26.085 27.0589C26.0254 26.3013 26.2241 25.5458 26.6487 24.9154C27.0733 24.2851 27.6988 23.8171 28.4234 23.5877C28.4314 23.5877 30.5261 23.9613 30.4596 23.0378C30.4314 22.635 29.8272 22.4769 29.3891 22.4598C29.0585 22.4568 28.7297 22.5092 28.4163 22.6149C28.1581 22.4668 27.9651 22.227 27.8755 21.9432C29.374 20.8092 30.4334 19.7136 30.4334 18.4709C30.44 18.3028 30.4112 18.1352 30.3488 17.979C30.2863 17.8228 30.1917 17.6815 30.0711 17.5643C29.9504 17.4471 29.8065 17.3566 29.6486 17.2987C29.4906 17.2408 29.3223 17.2168 29.1545 17.2282C27.656 17.2282 26.5231 19.1285 26.5231 20.8465C26.5094 21.1288 26.5341 21.4117 26.5966 21.6874C25.6502 22.3672 24.6701 22.9987 23.6601 23.5796C23.6756 23.207 23.7227 22.8364 23.801 22.4719C24.3176 22.0143 24.6808 21.4088 24.8413 20.7377C24.8476 20.6768 24.8409 20.6153 24.8216 20.5572C24.8022 20.4991 24.7708 20.4458 24.7292 20.4008C24.6877 20.3559 24.637 20.3203 24.5806 20.2964C24.5243 20.2725 24.4635 20.2609 24.4023 20.2624C23.6721 20.2624 23.1233 21.3581 22.9773 22.1264C22.6017 22.6165 22.0523 22.9438 21.4425 23.0408C21.2921 23.0333 21.1487 22.9749 21.0358 22.8752C20.9229 22.7754 20.8473 22.6403 20.8212 22.492C21.6559 22.147 22.3837 21.5859 22.9297 20.8665C23.4757 20.147 23.8202 19.2951 23.9279 18.3984C23.9384 18.2357 23.9128 18.0727 23.853 17.921C23.7931 17.7693 23.7006 17.6327 23.5819 17.5209C23.4632 17.4092 23.3213 17.325 23.1663 17.2744C23.0113 17.2238 22.847 17.208 22.6852 17.2282C21.0407 17.2282 19.652 19.6773 19.652 21.5776C19.0669 21.5776 18.8464 20.9563 18.8464 20.4819C18.879 20.1123 18.9399 19.7456 19.0287 19.3853C19.0333 19.344 19.0293 19.3021 19.0167 19.2625C19.0041 19.2228 18.9833 19.1863 18.9557 19.1552C18.928 19.1241 18.8941 19.0993 18.8562 19.0822C18.8183 19.0651 18.7772 19.0561 18.7356 19.056C18.1878 19.056 17.8585 19.7871 17.8585 20.627C17.8421 21.1303 18.0248 21.6198 18.367 21.9893C18.7091 22.3588 19.1832 22.5785 19.6863 22.6008C19.7562 22.9643 19.9449 23.2944 20.2226 23.5391C20.5004 23.7839 20.8515 23.9295 21.221 23.9532C21.7538 23.9624 22.2724 23.781 22.6832 23.4416C22.646 23.6974 22.6107 23.917 22.5735 24.1365C21.1988 24.7623 19.9092 25.5602 18.7356 26.5111C18.3565 26.8362 18.0451 27.2328 17.8193 27.6782C17.5934 28.1237 17.4576 28.6093 17.4194 29.1072C17.405 29.3888 17.4498 29.6702 17.5509 29.9333C17.6521 30.1965 17.8073 30.4354 18.0067 30.6348C18.206 30.8341 18.445 30.9894 18.7081 31.0905C18.9712 31.1917 19.2527 31.2365 19.5342 31.222C21.215 31.222 22.4949 29.8706 23.1163 28.0055C23.4055 26.9203 23.5674 25.805 23.5986 24.6823C24.758 24.0423 25.8781 23.3338 26.9531 22.5605C27.0454 22.7291 27.1696 22.8782 27.3186 22.9996C26.5282 23.3767 25.8631 23.9737 25.4031 24.7189C24.943 25.4642 24.7074 26.3263 24.7245 27.2019C24.6994 27.7181 24.7788 28.2339 24.9581 28.7186C25.1374 29.2032 25.4129 29.6466 25.7679 30.0221C26.1229 30.3976 26.5501 30.6975 27.0239 30.9037C27.4977 31.1099 28.0083 31.2182 28.5251 31.222C29.433 31.2304 30.3083 30.8836 30.964 30.2555C31.6197 29.6275 32.0039 28.768 32.0346 27.8605C32.0487 26.3611 31.2078 24.9723 29.5996 24.9723L29.5935 24.9713ZM35.8775 28.1103C35.8714 28.1214 35.8503 28.1395 35.81 28.1244C35.7697 28.1093 35.7687 28.0962 35.7697 28.077C36.0496 27.1649 36.1975 26.2174 36.2088 25.2634C36.2088 23.6521 35.5502 22.6682 34.7103 22.6682C34.5911 22.6647 34.4724 22.6862 34.3619 22.7313C34.2515 22.7765 34.1518 22.8443 34.0691 22.9303C33.9865 23.0164 33.9228 23.1188 33.8822 23.231C33.8415 23.3432 33.8248 23.4626 33.8332 23.5816C33.8332 24.5685 35.0416 24.642 35.0416 26.7981C35.0227 27.6948 34.8623 28.5829 34.5663 29.4295C33.2139 33.9974 28.9007 36.1163 24.6973 36.1163C23.4303 36.15 22.1678 35.9531 20.9713 35.5352C20.9606 35.5269 20.953 35.5151 20.9499 35.502C20.9468 35.4888 20.9483 35.4749 20.9541 35.4627C20.9632 35.4365 20.9924 35.4184 21.0075 35.4254C21.9159 35.7166 22.8643 35.8637 23.8182 35.8615C25.4294 35.8615 26.3771 35.2049 26.3771 34.3983C26.3779 34.278 26.3547 34.1589 26.309 34.0477C26.2634 33.9365 26.196 33.8355 26.1109 33.7506C26.0258 33.6657 25.9247 33.5985 25.8134 33.5531C25.7021 33.5076 25.5829 33.4848 25.4627 33.4859C24.4758 33.4859 24.4022 34.7275 22.2834 34.7275C21.375 34.7092 20.4749 34.5491 19.6158 34.2532C15.0841 32.8645 12.924 28.5886 12.928 24.349C12.9298 23.0839 13.1285 21.8268 13.5171 20.6229C13.5256 20.6145 13.5364 20.609 13.5481 20.607C13.5598 20.605 13.5719 20.6067 13.5826 20.6119C13.5933 20.6143 13.603 20.6203 13.6099 20.6289C13.6168 20.6375 13.6207 20.6482 13.6209 20.6592C13.3365 21.5692 13.1892 22.5165 13.1838 23.4698C13.1838 25.0811 13.8414 26.0277 14.6813 26.0277C14.7968 26.0292 14.9114 26.0076 15.0185 25.9641C15.1255 25.9206 15.2227 25.8561 15.3045 25.7745C15.3862 25.6928 15.4508 25.5957 15.4944 25.4887C15.538 25.3817 15.5598 25.2671 15.5584 25.1516C15.5584 24.1647 14.35 24.0549 14.35 21.9351C14.3685 21.0262 14.5289 20.1258 14.8253 19.2665C16.214 14.7348 20.4899 12.6109 24.6943 12.5787C25.9628 12.5702 27.2232 12.7804 28.4203 13.2C28.4286 13.2085 28.4341 13.2193 28.4361 13.231C28.4381 13.2427 28.4364 13.2547 28.4314 13.2655C28.4183 13.2997 28.3952 13.3038 28.3831 13.3017C27.4798 12.981 26.5268 12.8228 25.5684 12.8345C23.9974 12.8345 23.0115 13.4921 23.0115 14.333C23.011 14.4514 23.0345 14.5687 23.0807 14.6777C23.1269 14.7868 23.1948 14.8853 23.2802 14.9673C23.3656 15.0494 23.4668 15.1132 23.5776 15.1549C23.6885 15.1966 23.8066 15.2154 23.9249 15.2101C24.9118 15.2101 24.9853 14.0016 27.1041 14.0016C28.0127 14.0204 28.9127 14.1808 29.7718 14.477C34.3417 15.8657 36.4183 20.1788 36.4606 24.346C36.4801 25.6245 36.2851 26.8973 35.8835 28.1113L35.8775 28.1103ZM24.6993 11.7771C22.2128 11.7769 19.782 12.514 17.7145 13.8953C15.6469 15.2766 14.0354 17.24 13.0837 19.5372C12.132 21.8344 11.8829 24.3622 12.3679 26.801C12.8528 29.2398 14.0501 31.48 15.8083 33.2383C17.5665 34.9966 19.8066 36.1941 22.2453 36.6792C24.684 37.1644 27.2119 36.9155 29.5091 35.964C31.8064 35.0125 33.7699 33.4011 35.1514 31.3337C36.5329 29.2662 37.2702 26.8355 37.2702 24.349C37.27 21.0157 35.946 17.8189 33.5895 15.4614C31.2329 13.1039 28.0367 11.7787 24.7034 11.7771H24.6993ZM24.6993 37.5432C22.0901 37.5432 19.5396 36.7695 17.3701 35.3199C15.2007 33.8704 13.5098 31.81 12.5113 29.3994C11.5128 26.9889 11.2515 24.3364 11.7606 21.7773C12.2696 19.2183 13.526 16.8676 15.371 15.0227C17.216 13.1777 19.5666 11.9213 22.1257 11.4122C24.6847 10.9032 27.3372 11.1645 29.7478 12.163C32.1583 13.1614 34.2187 14.8523 35.6683 17.0218C37.1178 19.1912 37.8916 21.7418 37.8916 24.351C37.8916 27.8491 36.5022 31.204 34.0291 33.6779C31.5559 36.1518 28.2015 37.5422 24.7034 37.5432H24.6993Z" fill="#6400A0"/>
</g>
<defs>
<clipPath id="clip0_10_1486">
<rect width="139.977" height="47.77" fill="white" transform="translate(0.817383 0.464981)"/>
</clipPath>
</defs>
</svg>
