<svg width="16" height="16" viewBox="0 0 16 16" fill="none" xmlns="http://www.w3.org/2000/svg">
<g id="image" clip-path="url(#clip0_10_2045)">
<path id="Vector" d="M0.524731 1.02467C0.700539 0.848918 0.938953 0.750185 1.18754 0.750185C1.43614 0.750185 1.67455 0.848918 1.85036 1.02467L7.75004 6.92436L13.6497 1.02467C13.7362 0.935131 13.8397 0.86371 13.954 0.814577C14.0684 0.765444 14.1914 0.739581 14.3159 0.7385C14.4404 0.737418 14.5638 0.761138 14.6791 0.808277C14.7943 0.855415 14.899 0.925027 14.987 1.01305C15.075 1.10108 15.1446 1.20575 15.1918 1.32097C15.2389 1.43618 15.2626 1.55963 15.2615 1.68411C15.2604 1.80859 15.2346 1.93161 15.1855 2.04599C15.1363 2.16037 15.0649 2.26382 14.9754 2.3503L9.07567 8.24998L14.9754 14.1497C15.1461 14.3265 15.2406 14.5633 15.2385 14.8091C15.2364 15.0549 15.1378 15.2901 14.9639 15.4639C14.7901 15.6377 14.555 15.7363 14.3092 15.7384C14.0634 15.7406 13.8265 15.6461 13.6497 15.4753L7.75004 9.57561L1.85036 15.4753C1.67354 15.6461 1.43673 15.7406 1.19092 15.7384C0.945108 15.7363 0.709972 15.6377 0.536152 15.4639C0.362331 15.2901 0.263736 15.0549 0.2616 14.8091C0.259464 14.5633 0.353958 14.3265 0.524731 14.1497L6.42442 8.24998L0.524731 2.3503C0.348977 2.17449 0.250244 1.93608 0.250244 1.68748C0.250244 1.43889 0.348977 1.20048 0.524731 1.02467Z" fill="black"/>
</g>
<defs>
<clipPath id="clip0_10_2045">
<rect width="15" height="15" fill="white" transform="translate(0.25 0.75)"/>
</clipPath>
</defs>
</svg>
